<svg width="500" height="500" viewBox="0 0 500 500" fill="none" xmlns="http://www.w3.org/2000/svg">
<rect width="500" height="500" fill="#F3DDD8"/>
<path d="M64.7832 138.719H101.99L156.775 295.311L211.561 138.719H248.768L171.717 352H141.834L64.7832 138.719ZM44.7148 138.719H81.7754L88.5137 291.355V352H44.7148V138.719ZM231.775 138.719H268.982V352H225.037V291.355L231.775 138.719ZM418.543 296.189C418.543 292.381 417.957 288.963 416.785 285.936C415.711 282.811 413.66 279.979 410.633 277.439C407.605 274.803 403.357 272.215 397.889 269.676C392.42 267.137 385.34 264.5 376.648 261.766C366.98 258.641 357.801 255.125 349.109 251.219C340.516 247.312 332.898 242.771 326.258 237.596C319.715 232.322 314.539 226.219 310.73 219.285C307.02 212.352 305.164 204.295 305.164 195.115C305.164 186.229 307.117 178.172 311.023 170.945C314.93 163.621 320.398 157.371 327.43 152.195C334.461 146.922 342.762 142.869 352.332 140.037C362 137.205 372.596 135.789 384.119 135.789C399.842 135.789 413.562 138.621 425.281 144.285C437 149.949 446.082 157.713 452.527 167.576C459.07 177.439 462.342 188.719 462.342 201.414H418.689C418.689 195.164 417.371 189.695 414.734 185.008C412.195 180.223 408.289 176.463 403.016 173.729C397.84 170.994 391.297 169.627 383.387 169.627C375.77 169.627 369.422 170.799 364.344 173.143C359.266 175.389 355.457 178.465 352.918 182.371C350.379 186.18 349.109 190.477 349.109 195.262C349.109 198.875 349.988 202.146 351.746 205.076C353.602 208.006 356.336 210.74 359.949 213.279C363.562 215.818 368.006 218.211 373.279 220.457C378.553 222.703 384.656 224.9 391.59 227.049C403.211 230.564 413.416 234.52 422.205 238.914C431.092 243.309 438.514 248.24 444.471 253.709C450.428 259.178 454.92 265.379 457.947 272.312C460.975 279.246 462.488 287.107 462.488 295.896C462.488 305.174 460.682 313.475 457.068 320.799C453.455 328.123 448.23 334.324 441.395 339.402C434.559 344.48 426.404 348.338 416.932 350.975C407.459 353.611 396.863 354.93 385.145 354.93C374.598 354.93 364.197 353.562 353.943 350.828C343.689 347.996 334.363 343.748 325.965 338.084C317.664 332.42 311.023 325.193 306.043 316.404C301.062 307.615 298.572 297.215 298.572 285.203H342.664C342.664 291.844 343.689 297.459 345.74 302.049C347.791 306.639 350.672 310.35 354.383 313.182C358.191 316.014 362.684 318.064 367.859 319.334C373.133 320.604 378.895 321.238 385.145 321.238C392.762 321.238 399.012 320.164 403.895 318.016C408.875 315.867 412.537 312.889 414.881 309.08C417.322 305.271 418.543 300.975 418.543 296.189Z" fill="#323334"/>
</svg>
